<svg xmlns="http://www.w3.org/2000/svg" version="1.1" xmlns:xlink="http://www.w3.org/1999/xlink" xmlns:svgjs="http://svgjs.dev/svgjs" width="100%" height="100%" viewBox="0 0 1000 600"><rect width="1000" height="600" x="0" y="0" fill="#ffffff00"/><g><rect width="333.3333333333333" height="333.3333333333333" rx="13.333333333333334" ry="13.333333333333334" y="209.45921119740603" fill="#0088ff" transform="matrix(0.6676030930103456,0,0,0.6676030930103457,0,48.89719336641137)" x="187.23695373535156"/><path d="M426.4277307645034 451.1258701193482L376.33126938060485 451.1258701193482L376.33126938060485 390.19339622814937L339.2573156093372 390.19339622814937L339.2573156093372 360.12908852985345L376.0097259827621 360.12908852985345L376.0097259827621 301.125875025711L426.4277307645034 301.125875025711L426.4277307645034 451.1258701193482ZM331.34734802240587 451.1258701193482L281.3795039976444 451.1258701193482L281.3795039976444 301.125875025711L331.34734802240587 301.125875025711L331.34734802240587 451.1258701193482Z " fill="#ffffff" transform="matrix(0.6676030930103456,0,0,0.6676030930103457,0,48.89719336641137)"/><path d="M717.1883957577869 418.2780598282628L678.0623306538794 418.2780598282628L678.0623306538794 370.68891132254737L649.1070334364176 370.68891132254737L649.1070334364176 347.2082496587774L677.8112005826091 347.2082496587774L677.8112005826091 301.1258815806834L717.1883957577869 301.1258815806834L717.1883957577869 418.2780598282628ZM642.9292336831691 418.2780598282628L603.9036206077697 418.2780598282628L603.9036206077697 301.1258815806834L642.9292336831691 301.1258815806834L642.9292336831691 418.2780598282628ZM836.5505186325446 418.2780598282628L798.4038608065912 418.2780598282628L798.4038608065912 347.9114138583342L742.8790020487352 347.9114138583342L742.8790020487352 336.25897855139374L754.6318893841836 324.5060912159453L813.1451959901558 324.5060912159453L836.5505186325446 347.9114138583342L836.5505186325446 418.2780598282628ZM780.5736257464022 418.2780598282628L750.7393732794945 418.2780598282628L735.0186308179758 402.8335604451414L735.0186308179758 379.35289878137155L750.7393732794945 363.7074953412339L792.2260610533425 363.7074953412339L792.2260610533425 379.9556109524202L772.1105423445943 379.9556109524202L772.1105423445943 396.37951761349564L792.2260610533425 396.37951761349564L792.2260610533425 406.70096354270356L780.5736257464022 418.2780598282628ZM955.7368504574132 418.2780598282628L916.6358983606326 418.2780598282628L916.6358983606326 347.9114138583342L899.8604095997788 347.9114138583342L899.8604095997788 337.6653069505072L912.9191733058327 324.5060912159453L934.6419244707108 324.5060912159453L955.7368504574132 345.6261302097747L955.7368504574132 418.2780598282628ZM893.5068187966411 418.2780598282628L854.1296236214633 418.2780598282628L854.1296236214633 324.5060912159453L893.5068187966411 324.5060912159453L893.5068187966411 418.2780598282628ZM1051.1662775401146 451.1258731504138L999.7097259368369 451.1258731504138L987.9568386013883 439.29764679358425L987.9568386013883 430.63365933475995L1035.5459871071039 430.63365933475995L1035.5459871071039 347.9114138583342L1018.2431251965826 347.9114138583342L1018.2431251965826 324.5060912159453L1051.1662775401146 324.5060912159453L1074.5716001825035 347.9114138583342L1074.5716001825035 427.5447594581357L1051.1662775401146 451.1258731504138ZM1017.715752046915 418.2780598282628L996.4450350103234 418.2780598282628L973.0397123679346 394.87273718587403L973.0397123679346 347.9114138583342L996.4450350103234 324.5060912159453L1012.065325443334 324.5060912159453L1012.065325443334 396.37951761349564L1029.3681873538553 396.37951761349564L1029.3681873538553 406.70096354270356L1017.715752046915 418.2780598282628ZM1192.0753605298612 418.2780598282628L1153.9538157110346 418.2780598282628L1153.9538157110346 347.9114138583342L1098.403843946052 347.9114138583342L1098.403843946052 336.25897855139374L1110.1567312815 324.5060912159453L1168.6951508945992 324.5060912159453L1192.0753605298612 347.9114138583342L1192.0753605298612 418.2780598282628ZM1136.1235806508457 418.2780598282628L1106.264215176811 418.2780598282628L1090.5434727152924 402.8335604451414L1090.5434727152924 379.35289878137155L1106.264215176811 363.7074953412339L1147.776015957786 363.7074953412339L1147.776015957786 379.9556109524202L1127.6353842419107 379.9556109524202L1127.6353842419107 396.37951761349564L1147.776015957786 396.37951761349564L1147.776015957786 406.70096354270356L1136.1235806508457 418.2780598282628ZM1248.6800785941791 418.2780598282628L1209.6544655187797 418.2780598282628L1209.6544655187797 324.5060912159453L1248.6800785941791 324.5060912159453L1248.6800785941791 418.2780598282628ZM1310.6589801836813 370.68891132254737L1271.5329150797734 370.68891132254737L1271.5329150797734 347.9114138583342L1254.958330375936 347.9114138583342L1254.958330375936 337.6653069505072L1268.0170940819899 324.5060912159453L1291.6735467956487 324.5060912159453L1310.6589801836813 346.4046334307126L1310.6589801836813 370.68891132254737Z " fill="#0088ff" transform="matrix(0.6676030930103456,0,0,0.6676030930103457,0,48.89719336641137)"/></g></svg>